<?xml version="1.0" standalone="no"?>
<!DOCTYPE svg PUBLIC "-//W3C//DTD SVG 20010904//EN"
 "http://www.w3.org/TR/2001/REC-SVG-20010904/DTD/svg10.dtd">
<svg version="1.0" xmlns="http://www.w3.org/2000/svg"
 width="2046.000000pt" height="404.000000pt" viewBox="0 0 2046.000000 404.000000"
 preserveAspectRatio="xMidYMid meet">

<g transform="translate(0.000000,404.000000) scale(0.100000,-0.100000)"
fill="#000000" stroke="none">
<path d="M267 3813 c-4 -3 -7 -606 -7 -1340 l0 -1333 350 0 350 0 0 120 0 120
-207 2 -208 3 -3 1092 -2 1093 207 2 208 3 0 120 0 120 -341 3 c-187 1 -343
-1 -347 -5z"/>
<path d="M3254 3807 c-2 -7 -3 -62 -2 -123 l3 -109 208 -3 207 -2 0 -1095 0
-1095 -207 -2 -208 -3 0 -115 0 -115 350 0 350 0 0 1335 0 1335 -348 3 c-281
2 -348 0 -353 -11z"/>
<path d="M18740 2586 l0 -1235 29 1 c15 1 33 -2 40 -6 6 -4 11 -2 11 4 0 6 5
8 10 5 6 -4 7 -12 3 -18 -5 -9 -3 -9 8 -1 15 12 133 14 144 2 4 -3 20 -2 36 2
17 5 37 6 46 3 12 -5 14 -3 8 7 -6 9 -4 11 5 5 20 -12 63 -13 78 -2 8 6 12 6
12 0 0 -14 93 -13 102 1 5 8 8 7 8 -2 0 -14 58 -14 77 0 7 6 14 4 19 -3 5 -8
3 -9 -6 -4 -9 5 -11 4 -6 -3 5 -9 13 -9 27 -2 10 6 19 9 19 6 0 -2 15 0 34 4
29 6 34 5 28 -9 -5 -14 -3 -14 11 -3 9 8 21 11 26 7 6 -3 20 -1 31 5 11 6 20
7 20 3 0 -12 184 -10 192 2 5 6 8 6 8 0 0 -11 79 -14 96 -3 6 4 14 4 18 1 11
-11 46 -10 46 1 0 6 5 4 10 -4 8 -12 11 -13 19 -1 5 7 10 9 12 3 5 -13 75 -19
72 -6 -2 13 44 16 52 3 5 -6 12 -6 23 3 12 10 14 10 8 0 -6 -10 0 -11 26 -7
72 12 69 8 66 103 l-3 87 -564 3 -563 2 3 1138 4 1137 -172 3 -173 2 0 -1234z"/>
<path d="M17160 3788 c-58 -130 -997 -2565 -991 -2571 4 -4 84 -6 177 -5 l169
3 112 295 c61 162 196 518 299 790 103 272 215 570 250 661 35 92 80 224 100
295 21 71 40 132 44 137 3 4 17 -30 29 -75 25 -87 141 -415 171 -483 10 -22
62 -161 115 -310 191 -531 274 -754 381 -1032 l109 -283 177 0 c136 0 178 3
178 13 0 6 -224 590 -498 1297 l-499 1285 -156 3 c-155 2 -157 2 -167 -20z"/>
<path d="M4780 2576 c0 -1067 2 -1225 15 -1229 8 -4 17 -2 20 4 4 5 12 6 18 2
7 -4 39 -8 72 -8 34 -1 66 -4 72 -8 6 -4 14 -3 17 1 3 5 42 8 88 6 48 -2 87 1
95 8 10 8 13 7 13 -3 0 -12 2 -12 9 -1 4 8 12 14 16 14 4 0 12 -6 16 -14 7
-10 9 -10 9 0 0 9 5 10 19 2 11 -5 28 -10 38 -10 15 0 16 2 3 10 -11 8 -8 9
12 6 15 -3 33 -8 39 -12 8 -5 9 -3 4 6 -6 10 -4 12 9 7 40 -15 64 -18 71 -8 3
6 12 8 18 4 18 -12 81 -12 95 -1 8 7 12 7 12 -1 0 -6 9 -11 21 -11 11 0 18 4
15 9 -7 10 13 9 30 -2 7 -4 26 -5 43 -3 17 2 31 -1 31 -6 0 -5 6 -6 12 -1 21
12 68 12 68 0 0 -8 3 -8 11 0 7 7 21 8 40 3 19 -6 29 -5 29 2 0 6 3 8 6 5 4
-3 16 -2 27 4 15 9 18 8 12 -2 -6 -9 -3 -11 8 -6 10 3 17 2 17 -4 0 -6 5 -7
13 -2 6 4 19 8 27 8 8 0 21 4 29 9 8 6 12 5 8 0 -7 -11 113 -12 131 -1 7 5 12
4 12 -3 0 -17 49 -6 110 25 254 128 451 371 533 655 48 163 62 286 60 520 -1
187 -4 230 -26 330 -81 378 -272 632 -592 786 -60 29 -153 65 -205 79 -190 50
-258 55 -772 55 l-478 0 0 -1224z m973 909 c125 -19 263 -65 352 -117 103 -60
221 -184 272 -283 95 -185 136 -440 113 -698 -38 -439 -231 -708 -586 -820
-137 -43 -265 -57 -538 -57 l-246 0 0 388 c0 213 3 660 7 995 l6 607 261 0
c179 0 292 -5 359 -15z"/>
<path d="M7720 2506 l0 -1296 175 0 175 0 0 1146 0 1147 268 -6 c274 -6 342
-14 449 -55 155 -59 230 -172 240 -362 8 -158 -32 -284 -120 -371 -85 -85
-210 -128 -405 -138 l-122 -6 174 -290 c96 -159 275 -463 399 -675 l225 -385
193 -3 c106 -1 196 1 201 6 4 4 -147 262 -337 572 -190 310 -345 566 -345 570
0 3 42 26 93 52 211 105 332 243 384 438 24 91 25 339 0 430 -71 267 -247 421
-562 491 -94 21 -128 22 -592 26 l-493 4 0 -1295z"/>
<path d="M10060 2505 l0 -1295 728 2 727 3 0 150 0 150 -557 3 -558 2 0 445 0
445 525 0 526 0 -3 153 -3 152 -522 3 -523 2 0 385 0 385 558 2 557 3 3 153 3
152 -731 0 -730 0 0 -1295z"/>
<path d="M13650 3794 c-15 -4 -167 -429 -561 -1559 -84 -242 -136 -413 -180
-594 l-11 -45 -38 150 c-51 198 -53 204 -385 1144 -158 448 -294 834 -302 858
l-15 42 -170 0 c-132 0 -169 -3 -166 -12 2 -7 209 -586 458 -1286 l454 -1272
165 2 165 3 295 827 c163 454 298 825 301 823 5 -3 331 902 330 918 0 7 -312
8 -340 1z"/>
<path d="M14410 2505 l0 -1295 730 0 731 0 -3 152 -3 153 -552 3 -553 2 0 445
0 445 523 2 522 3 0 150 0 150 -522 3 -523 2 0 385 0 385 553 2 552 3 3 153 3
152 -731 0 -730 0 0 -1295z"/>
<path d="M1463 3311 c-99 -25 -143 -90 -143 -211 0 -106 25 -155 100 -193 44
-23 65 -28 105 -25 66 6 120 32 153 76 25 33 27 42 27 141 0 95 -2 109 -23
139 -42 58 -143 92 -219 73z"/>
<path d="M2635 3307 c-103 -34 -130 -77 -130 -202 0 -119 19 -159 95 -197 61
-32 106 -35 173 -12 63 21 102 68 117 141 15 69 1 163 -28 203 -45 60 -152 91
-227 67z"/>
<path d="M7250 2764 c-79 -34 -113 -96 -113 -204 0 -149 75 -226 213 -218 80
4 138 38 167 96 27 55 25 193 -3 247 -41 79 -173 119 -264 79z"/>
<path d="M1425 1991 c-79 -36 -105 -85 -105 -194 0 -76 21 -137 56 -169 76
-67 223 -61 291 13 33 36 43 73 43 154 0 81 -10 118 -43 154 -54 58 -165 78
-242 42z"/>
<path d="M2605 1991 c-22 -10 -48 -28 -58 -39 -47 -52 -60 -179 -29 -262 55
-142 286 -147 359 -6 25 48 24 180 -3 231 -41 81 -176 119 -269 76z"/>
<path d="M19236 924 c-32 -32 -8 -82 33 -69 22 7 37 45 27 70 -7 20 -40 19
-60 -1z"/>
<path d="M16205 908 c-4 -14 -85 -481 -85 -493 0 -3 14 -5 32 -3 35 3 29 -13
63 176 l6 32 103 0 c99 0 104 1 110 23 3 12 6 25 6 30 0 4 -48 7 -106 7 -96 0
-105 2 -100 18 2 9 10 50 16 90 l12 72 114 0 114 0 0 30 0 30 -140 0 c-104 0
-142 -3 -145 -12z"/>
<path d="M18956 841 c-12 -25 -30 -44 -52 -54 -40 -20 -46 -47 -9 -47 30 0 30
9 5 -126 -25 -138 -25 -155 1 -188 19 -25 26 -27 82 -24 57 3 61 5 68 30 7 27
7 28 -30 22 -29 -5 -40 -2 -55 15 -18 20 -18 23 3 139 11 65 21 121 21 124 0
4 26 8 58 10 50 3 57 6 60 26 3 20 -1 22 -46 22 -27 0 -51 2 -54 5 -3 3 -2 23
2 45 7 37 6 40 -15 40 -16 0 -27 -11 -39 -39z"/>
<path d="M15456 793 c-3 -3 -1 -14 5 -24 5 -11 6 -19 2 -19 -4 0 1 -6 11 -12
15 -9 22 -7 33 8 7 10 12 23 10 28 -4 11 -53 27 -61 19z"/>
<path d="M15725 788 c-88 -32 -148 -125 -149 -232 -1 -71 16 -105 67 -136 60
-37 209 -21 221 23 9 35 8 36 -41 20 -105 -32 -183 5 -183 88 l0 39 134 0 134
0 6 43 c8 55 -11 114 -45 140 -32 23 -102 31 -144 15z m108 -69 c9 -12 17 -34
17 -50 l0 -29 -100 0 -100 0 20 41 c35 67 121 88 163 38z"/>
<path d="M16655 786 c-142 -53 -197 -295 -83 -366 49 -31 150 -25 206 12 78
52 125 211 85 287 -10 19 -30 43 -45 54 -34 26 -112 31 -163 13z m134 -72 c40
-51 18 -174 -40 -230 -25 -24 -39 -29 -81 -29 -67 0 -88 25 -88 104 1 110 55
181 141 181 39 0 51 -4 68 -26z"/>
<path d="M17155 788 c-11 -6 -32 -22 -47 -36 l-28 -26 0 33 c0 29 -3 32 -27
29 -27 -3 -27 -5 -55 -158 -15 -85 -30 -170 -33 -187 -6 -32 -5 -33 27 -33
l34 0 18 109 c10 63 27 124 39 146 26 46 80 77 124 73 31 -4 42 9 43 50 0 15
-67 16 -95 0z"/>
<path d="M17415 781 c-50 -23 -78 -53 -104 -111 -50 -113 -31 -219 44 -254 30
-15 55 -17 116 -14 43 3 85 10 93 18 17 13 23 65 7 55 -6 -3 -35 -10 -66 -16
-95 -17 -155 19 -155 96 l0 25 134 0 134 0 6 31 c10 51 7 89 -10 124 -29 62
-120 83 -199 46z m129 -63 c9 -12 16 -35 16 -50 l0 -28 -95 0 c-52 0 -95 2
-95 5 0 16 33 66 52 79 35 25 103 21 122 -6z"/>
<path d="M17845 782 c-87 -41 -142 -148 -133 -259 4 -44 11 -60 37 -86 30 -31
34 -32 117 -32 88 0 104 7 104 48 0 15 -5 17 -29 12 -16 -3 -49 -6 -72 -7 -35
0 -47 5 -67 28 -21 24 -24 35 -19 84 10 114 68 177 151 167 23 -3 48 -8 57
-11 20 -9 46 41 29 58 -19 19 -131 18 -175 -2z"/>
<path d="M18195 785 c-22 -8 -41 -15 -43 -15 -2 0 -2 -10 0 -22 2 -18 9 -22
28 -20 14 1 48 5 76 8 62 7 87 -11 82 -60 -3 -31 -3 -31 -78 -38 -142 -15
-190 -49 -198 -141 -4 -49 -2 -56 23 -75 41 -32 129 -31 179 3 45 31 46 31 46
0 0 -20 5 -25 23 -25 23 0 25 7 51 154 16 90 24 164 20 180 -15 59 -117 84
-209 51z m121 -227 c-9 -48 -38 -81 -84 -98 -58 -20 -96 -6 -100 38 -2 24 3
38 23 56 30 28 47 33 119 35 l49 1 -7 -32z"/>
<path d="M18594 781 c-51 -23 -74 -55 -74 -101 0 -44 25 -70 95 -100 85 -36
105 -69 66 -104 -29 -26 -92 -31 -147 -12 -26 9 -48 15 -49 13 -1 -1 -5 -14
-9 -30 -5 -23 -3 -29 19 -37 43 -16 163 -12 202 7 60 28 90 102 63 154 -6 10
-47 37 -90 59 -67 34 -80 44 -80 65 0 14 8 29 19 35 25 13 102 13 138 -1 23
-8 30 -7 40 7 20 28 16 41 -18 53 -48 17 -129 13 -175 -8z"/>
<path d="M19513 775 c-41 -23 -43 -23 -43 -4 0 14 -7 19 -28 19 l-28 0 -32
-182 c-18 -101 -32 -189 -32 -196 0 -9 11 -12 32 -10 l32 3 26 130 c14 72 31
140 38 152 26 46 116 69 156 40 23 -17 23 -54 -3 -196 -12 -63 -21 -118 -21
-123 0 -4 16 -8 35 -8 19 0 35 4 35 10 0 5 11 72 24 149 29 161 24 201 -24
226 -45 23 -118 19 -167 -10z"/>
<path d="M19945 784 c-72 -37 -113 -111 -122 -215 -7 -77 6 -119 45 -149 35
-28 132 -28 177 0 l33 20 -7 -33 c-11 -45 -26 -72 -57 -96 -23 -18 -41 -21
-120 -21 -87 0 -94 -2 -94 -20 0 -46 184 -54 254 -10 20 12 45 39 56 60 11 22
35 125 55 237 19 109 37 206 39 216 6 26 -54 24 -61 -2 -5 -18 -7 -18 -40 5
-42 28 -112 32 -158 8z m142 -70 c23 -23 25 -31 20 -83 -7 -87 -38 -148 -83
-167 -112 -47 -166 50 -108 195 31 78 119 106 171 55z"/>
<path d="M19205 778 c-2 -7 -15 -83 -30 -168 -15 -85 -29 -167 -32 -182 -5
-26 -3 -28 30 -28 l35 0 17 98 c9 53 25 141 35 195 l17 97 -34 0 c-18 0 -35
-6 -38 -12z"/>
</g>
</svg>
