<?xml version="1.0" standalone="no"?>
<!DOCTYPE svg PUBLIC "-//W3C//DTD SVG 20010904//EN"
 "http://www.w3.org/TR/2001/REC-SVG-20010904/DTD/svg10.dtd">
<svg version="1.0" xmlns="http://www.w3.org/2000/svg"
 width="2144.000000pt" height="368.000000pt" viewBox="0 0 2144.000000 368.000000"
 preserveAspectRatio="xMidYMid meet">

<g transform="translate(0.000000,368.000000) scale(0.100000,-0.100000)"
fill="#000000" stroke="none">
<path d="M19240 2815 l0 -364 55 3 c30 2 55 1 55 -3 0 -3 13 -6 29 -6 16 0 27
3 24 8 -7 12 12 8 25 -5 9 -9 12 -9 12 1 0 11 3 11 15 1 12 -10 15 -10 15 1 0
12 2 12 9 0 5 -7 11 -9 14 -5 6 11 59 10 75 0 9 -5 12 82 12 363 l0 371 -170
0 -170 0 0 -365z"/>
<path d="M5280 2806 c0 -258 3 -357 12 -362 7 -5 8 -3 3 6 -6 10 -4 11 6 4 20
-12 39 -14 39 -3 0 5 9 9 21 9 13 0 18 -4 13 -12 -5 -8 0 -7 11 2 11 9 16 10
11 3 -4 -7 -3 -13 3 -13 5 0 12 6 14 13 3 7 6 8 6 1 1 -11 49 -10 78 1 7 2 14
1 17 -3 6 -9 48 -8 63 1 7 4 14 3 18 -3 19 -31 25 20 25 206 l0 204 278 0
c303 0 406 -11 541 -56 169 -57 311 -158 396 -283 l49 -71 63 3 c41 3 63 0 63
-7 0 -7 3 -7 8 1 7 12 31 11 90 -2 12 -3 22 -2 22 3 0 9 93 8 108 -2 25 -15
18 32 -14 97 -58 116 -117 197 -206 283 -196 190 -416 287 -733 324 -50 5
-296 10 -547 10 l-458 0 0 -354z"/>
<path d="M1963 2671 c-99 -25 -143 -90 -143 -211 0 -106 25 -155 100 -193 44
-23 65 -28 105 -25 66 6 120 32 153 76 25 33 27 42 27 141 0 95 -2 109 -23
139 -42 58 -143 92 -219 73z"/>
<path d="M3135 2667 c-103 -34 -130 -77 -130 -202 0 -119 19 -159 95 -197 61
-32 106 -35 173 -12 63 21 102 68 117 141 15 69 1 163 -28 203 -45 60 -152 91
-227 67z"/>
<path d="M1925 1351 c-79 -36 -105 -85 -105 -194 0 -76 21 -137 56 -169 76
-67 223 -61 291 13 33 36 43 73 43 154 0 81 -10 118 -43 154 -54 58 -165 78
-242 42z"/>
<path d="M3105 1351 c-22 -10 -48 -28 -58 -39 -47 -52 -60 -179 -29 -262 55
-142 286 -147 359 -6 25 48 24 180 -3 231 -41 81 -176 119 -269 76z"/>
</g>
</svg>
